<?xml version="1.0" encoding="utf-8"?>
<!-- Generator: Adobe Illustrator 23.0.0, SVG Export Plug-In . SVG Version: 6.00 Build 0)  -->
<svg version="1.2" baseProfile="tiny" id="Слой_1"
	 xmlns="http://www.w3.org/2000/svg" xmlns:xlink="http://www.w3.org/1999/xlink" x="0px" y="0px" viewBox="0 0 24 24"
	 xml:space="preserve">
<g>
	<circle fill="none" cx="7" cy="7" r="12"/>
	<path fill="#4B8B60" d="M8,6.6C8,6.3,8.3,6,8.6,6h1.8C10.7,6,11,6.3,11,6.6v10.8c0,0.3-0.3,0.6-0.6,0.6H8.6C8.3,18,8,17.7,8,17.4
		V6.6z M13,6.6C13,6.3,13.3,6,13.6,6h1.8C15.7,6,16,6.3,16,6.6v10.8c0,0.3-0.3,0.6-0.6,0.6h-1.8c-0.3,0-0.6-0.3-0.6-0.6V6.6z"/>
</g>
</svg>
