<svg xmlns="http://www.w3.org/2000/svg" viewBox="0 0 423 505"><defs><style>.cls-1{fill:#ffc900;}.cls-2{fill:#ffe100;}.cls-3{fill:#ebedef;}.cls-4{fill:#fff;}</style></defs><title>JS</title><g id="Слой_2" data-name="Слой 2"><polygon class="cls-1" points="0 0 36.11 456 210.47 505 382.76 455 423 0 0 0"/><line class="cls-1" x1="210.47" y1="118" x2="210.47" y2="118"/></g><g id="Слой_3" data-name="Слой 3"><polygon class="cls-2" points="210.47 35 381.73 35 349.75 428 210.47 469 210.47 35"/></g><g id="Слой_4" data-name="Слой 4"><polygon class="cls-3" points="210.47 59.96 210.47 118.28 159.91 118 152.69 206 210.47 206 210.47 263 93.89 263 110.39 60 210.47 59.96"/><polygon class="cls-3" points="210.47 352 210.47 412 101.11 380 93.89 292 147.53 292 149.6 337 210.47 352"/><polygon class="cls-4" points="274.43 118 210.47 118 210.47 60 322.92 60 332.21 179 280.62 179 274.43 118"/></g><g id="Слой_5" data-name="Слой 5"><path class="cls-4" d="M248.47,466l110.39-35,10.32-171H248.47v57h65l-5.16,71-59.84,18Z" transform="translate(-38 -54)"/></g></svg>