<?xml version="1.0" encoding="utf-8"?>
<!-- Generator: Adobe Illustrator 23.0.1, SVG Export Plug-In . SVG Version: 6.00 Build 0)  -->
<svg version="1.2" baseProfile="tiny" xmlns="http://www.w3.org/2000/svg" xmlns:xlink="http://www.w3.org/1999/xlink" x="0px"
	 y="0px" viewBox="0 0 549.7 325.1" xml:space="preserve">
<metadata><?xpacket begin="﻿" id="W5M0MpCehiHzreSzNTczkc9d"?>
<x:xmpmeta xmlns:x="adobe:ns:meta/" x:xmptk="Adobe XMP Core 5.6-c145 79.163499, 2018/08/13-16:40:22        ">
   <rdf:RDF xmlns:rdf="http://www.w3.org/1999/02/22-rdf-syntax-ns#">
      <rdf:Description rdf:about=""
            xmlns:xmpMM="http://ns.adobe.com/xap/1.0/mm/"
            xmlns:stRef="http://ns.adobe.com/xap/1.0/sType/ResourceRef#"
            xmlns:stEvt="http://ns.adobe.com/xap/1.0/sType/ResourceEvent#"
            xmlns:stMfs="http://ns.adobe.com/xap/1.0/sType/ManifestItem#"
            xmlns:dc="http://purl.org/dc/elements/1.1/"
            xmlns:xmp="http://ns.adobe.com/xap/1.0/"
            xmlns:xmpGImg="http://ns.adobe.com/xap/1.0/g/img/"
            xmlns:xmpTPg="http://ns.adobe.com/xap/1.0/t/pg/"
            xmlns:stDim="http://ns.adobe.com/xap/1.0/sType/Dimensions#"
            xmlns:xmpG="http://ns.adobe.com/xap/1.0/g/"
            xmlns:pdf="http://ns.adobe.com/pdf/1.3/">
         <xmpMM:DocumentID>xmp.did:85e06a9e-6a81-2e4a-ac2b-ff0be5673aa2</xmpMM:DocumentID>
         <xmpMM:InstanceID>xmp.iid:85e06a9e-6a81-2e4a-ac2b-ff0be5673aa2</xmpMM:InstanceID>
         <xmpMM:OriginalDocumentID>xmp.did:29be7017-7f3b-2849-9f9d-809bd2c96972</xmpMM:OriginalDocumentID>
         <xmpMM:RenditionClass>proof:pdf</xmpMM:RenditionClass>
         <xmpMM:DerivedFrom rdf:parseType="Resource">
            <stRef:instanceID>uuid:c4bffa57-f6b0-436f-9ca0-8cba5e934e7e</stRef:instanceID>
            <stRef:documentID>xmp.did:67170959-126e-314a-afb9-d266b51fcc34</stRef:documentID>
            <stRef:originalDocumentID>xmp.did:29be7017-7f3b-2849-9f9d-809bd2c96972</stRef:originalDocumentID>
            <stRef:renditionClass>proof:pdf</stRef:renditionClass>
         </xmpMM:DerivedFrom>
         <xmpMM:History>
            <rdf:Seq>
               <rdf:li rdf:parseType="Resource">
                  <stEvt:action>saved</stEvt:action>
                  <stEvt:instanceID>xmp.iid:29be7017-7f3b-2849-9f9d-809bd2c96972</stEvt:instanceID>
                  <stEvt:when>2019-01-23T20:06:55+03:00</stEvt:when>
                  <stEvt:softwareAgent>Adobe Illustrator CC 23.0 (Windows)</stEvt:softwareAgent>
                  <stEvt:changed>/</stEvt:changed>
               </rdf:li>
               <rdf:li rdf:parseType="Resource">
                  <stEvt:action>saved</stEvt:action>
                  <stEvt:instanceID>xmp.iid:85e06a9e-6a81-2e4a-ac2b-ff0be5673aa2</stEvt:instanceID>
                  <stEvt:when>2019-01-29T18:47:16+03:00</stEvt:when>
                  <stEvt:softwareAgent>Adobe Illustrator CC 23.0 (Windows)</stEvt:softwareAgent>
                  <stEvt:changed>/</stEvt:changed>
               </rdf:li>
            </rdf:Seq>
         </xmpMM:History>
         <xmpMM:Manifest>
            <rdf:Seq>
               <rdf:li rdf:parseType="Resource">
                  <stMfs:linkForm>EmbedByReference</stMfs:linkForm>
                  <stMfs:reference rdf:parseType="Resource">
                     <stRef:filePath>C:\Users\danil\Downloads\express-mail-express-pngrepo-com.png</stRef:filePath>
                     <stRef:documentID>0</stRef:documentID>
                     <stRef:instanceID>0</stRef:instanceID>
                  </stMfs:reference>
               </rdf:li>
            </rdf:Seq>
         </xmpMM:Manifest>
         <xmpMM:Ingredients>
            <rdf:Bag>
               <rdf:li rdf:parseType="Resource">
                  <stRef:filePath>C:\Users\danil\Downloads\express-mail-express-pngrepo-com.png</stRef:filePath>
                  <stRef:documentID>0</stRef:documentID>
                  <stRef:instanceID>0</stRef:instanceID>
               </rdf:li>
            </rdf:Bag>
         </xmpMM:Ingredients>
         <dc:format>image/svg+xml</dc:format>
         <dc:title>
            <rdf:Alt>
               <rdf:li xml:lang="x-default">Mail Icon</rdf:li>
            </rdf:Alt>
         </dc:title>
         <xmp:CreatorTool>Adobe Illustrator CC 23.0 (Windows)</xmp:CreatorTool>
         <xmp:CreateDate>2019-01-29T18:47:15+03:00</xmp:CreateDate>
         <xmp:MetadataDate>2019-01-29T18:47:16+03:00</xmp:MetadataDate>
         <xmp:ModifyDate>2019-01-29T18:47:16+03:00</xmp:ModifyDate>
         <xmp:Thumbnails>
            <rdf:Alt>
               <rdf:li rdf:parseType="Resource">
                  <xmpGImg:width>256</xmpGImg:width>
                  <xmpGImg:height>148</xmpGImg:height>
                  <xmpGImg:format>JPEG</xmpGImg:format>
                  <xmpGImg:image>/9j/4AAQSkZJRgABAgEASABIAAD/7QAsUGhvdG9zaG9wIDMuMAA4QklNA+0AAAAAABAASAAAAAEA&#xA;AQBIAAAAAQAB/+4ADkFkb2JlAGTAAAAAAf/bAIQABgQEBAUEBgUFBgkGBQYJCwgGBggLDAoKCwoK&#xA;DBAMDAwMDAwQDA4PEA8ODBMTFBQTExwbGxscHx8fHx8fHx8fHwEHBwcNDA0YEBAYGhURFRofHx8f&#xA;Hx8fHx8fHx8fHx8fHx8fHx8fHx8fHx8fHx8fHx8fHx8fHx8fHx8fHx8fHx8f/8AAEQgAlAEAAwER&#xA;AAIRAQMRAf/EAaIAAAAHAQEBAQEAAAAAAAAAAAQFAwIGAQAHCAkKCwEAAgIDAQEBAQEAAAAAAAAA&#xA;AQACAwQFBgcICQoLEAACAQMDAgQCBgcDBAIGAnMBAgMRBAAFIRIxQVEGE2EicYEUMpGhBxWxQiPB&#xA;UtHhMxZi8CRygvElQzRTkqKyY3PCNUQnk6OzNhdUZHTD0uIIJoMJChgZhJRFRqS0VtNVKBry4/PE&#xA;1OT0ZXWFlaW1xdXl9WZ2hpamtsbW5vY3R1dnd4eXp7fH1+f3OEhYaHiImKi4yNjo+Ck5SVlpeYmZ&#xA;qbnJ2en5KjpKWmp6ipqqusra6voRAAICAQIDBQUEBQYECAMDbQEAAhEDBCESMUEFURNhIgZxgZEy&#xA;obHwFMHR4SNCFVJicvEzJDRDghaSUyWiY7LCB3PSNeJEgxdUkwgJChgZJjZFGidkdFU38qOzwygp&#xA;0+PzhJSktMTU5PRldYWVpbXF1eX1RlZmdoaWprbG1ub2R1dnd4eXp7fH1+f3OEhYaHiImKi4yNjo&#xA;+DlJWWl5iZmpucnZ6fkqOkpaanqKmqq6ytrq+v/aAAwDAQACEQMRAD8A9U4q7FXYq7FXYq7FXYq/&#xA;LTUtSv8AU9QuNQ1Cd7m9u5GluLiQ8nd3NSxJxVd+idV/5Y5/+Rb/ANMVd+idV/5Y5/8AkW/9MVab&#xA;TNSRSz2kyqOpMbAfqxQSBzU/ql1/vl/+BP8ATDRY+JHvCoumak6hktJmU9CI2I/VgZAg8m/0Tqv/&#xA;ACxz/wDIt/6Ypd+idV/5Y5/+Rb/0xVSNleA0MElf9Rv6ZHiHez8OXcVyaffuSEtpWI68UY/qGEEF&#xA;BiRzC/8AROq/8sc//It/6YWLv0Tqv/LHP/yLf+mKrHsL6M0ktpUJ6BkYfrGNMTMDmVos7skAQSEn&#xA;oArf0w0gZI94Vf0Tqv8Ayxz/APIt/wCmBm79E6r/AMsc/wDyLf8ApirTaXqags1pMAOpMbgfqxSB&#xA;an9Tu/8AfEn/AALf0yPGO9l4cu4pr5a0vzbJrunny/a3Z1cTobB7dH9QTBqqVIG1DhBtiQRzfpzh&#xA;Q+CP+cmNM83P+cOtyajb3Mtu7RnTH4u8RtfTUJ6RAK0Bryp+1XviryhrK8UlWgkDDqCjA/qw0wOS&#xA;I6htLC+c8Ut5WPgqMT+AwUkTB5FU/ROq/wDLHP8A8i3/AKYsllhf32nX0F9YzyWt7ayLLBPExSSO&#xA;RDUMpG4IOKv1MxV2KuxV2KuxV2KuxV+VeKv0684+cfL/AJP8v3Ova/ci1062oGahZ3djRI40G7Mx&#xA;6D6TQAnFXkUf/OZn5SsDytdXShoA1tDv7/DOcVYD50/5yj8seYbrgkd9DpkRrBbmNKk/zyUk+1+r&#xA;MzBlxwHm8j2z2ZrtZOgYxxDkLPzO3P7ks8v/AJ3flguoJJrS6ibOP4jDDAjNIeyk+qtF8e+WZNWK&#xA;9PNwNB7JTGQHOY8A6A8/s5PUYv8AnMT8n4o1iittUSNAFRFtYgABsAAJs15L3cYiIAAoBd/0OT+U&#xA;f++dV/6Rov8AqtiySTzP/wA5heRbu0+qaRDqUQkFJrh4Y1bj/KlJTSvc5iaqOWUeGHzdj2fPBCXF&#xA;ls1yFfeweP8APzyG0ih0vkQkcn9FDQdzT1N81I7Ly3vT0Uu38AGwlfueiaL/AM5X/kto9itpaW+q&#xA;gDeSQ20XJ27sx9bN3gwRxR4YvK6vVzzz4pf2I/8A6HJ/KP8A3zqv/SNF/wBVsucZQvv+czPyvS1k&#xA;aytdTluqfukkgjVOX+URKTT5YY1e7VmMxA8ABl0vYfF5Vqf/ADkD5b1O9lvb367LcSmrMYkoB2AH&#xA;qbAdhmwjqccRQt4HU+zeuzzM5ygZHzP6mVeRv+cifye0P/Tb+HUp9UNQhW2jKRL0+Gsoqx7n6Pnj&#xA;59Rx7Dk77sT2fGl9eSpZfsj7vPz/AAZl/wBDk/lH/vnVf+kaL/qtmM9K7/ocn8o/986r/wBI0X/V&#xA;bFWH+bv+cr/J2tSehbxahDpyGqxmKMM7fzPSQ/QM1mswZspoUIu+7M1em044pWcnu5e5JtK/Pz8s&#xA;zeodTXUVtF3dYoIy7U/Z/vRSvjmLh7Llxev6XP1PtBj4D4YPF5vRoP8AnML8nbeFIYbbVI4owFRF&#xA;tYgAB2H77N5GIAocnlJzMiSTZK//AKHJ/KP/AHzqv/SNF/1WwsUo8zf85jeRZbA2+hw6jHcS1D3M&#xA;sEa+mv8AkASt8Xv2yzFwg3J13aUdTLHw6ehI9SeXu8/ueZH87/JzvV1vKsasxiU9epPx5n/m4ebw&#xA;/wDoT1ZO5h8z+p6R5a/5yj/Jby5pwgtrXV57iShubgWsId2/2U4oo7DMHLlMzZe27L7Lx6PHwx3k&#xA;eZ7/ANncHu/k3zl5e84+X7bXtAuRdafc1AJBV0dTR45EO6up6j6RUEHKnZvzQ1b/AI6t5/xnk/4m&#xA;cVTzzn+YXnHzT5gu9V1nUbk3EsjlLf1HWOBS20UaVARV6Up898VSP9Lar/y2T/8AIx/64q79Lar/&#xA;AMtk/wDyMf8Arirv0tqv/LZP/wAjH/rirv0tqv8Ay2T/APIx/wCuKu/S2q/8tk//ACMf+uKvrb/n&#xA;DTzx5o1vTtf0TVruW/stK+rS2M07NI8XrmQPFzapK/uwVBO29MVfH2KvtX/nNUkflXpdD11y3r/0&#xA;iXWKvkvyJ5E1/wA8a+mg6Ckb6g8bzKsziNOEYq3xHFXpP/Qof5y/8s1j/wBJaf0xV3/Qof5y/wDL&#xA;NY/9Ja/0xV3/AEKH+cv/ACzWP/SWv9MVd/0KH+cv/LNY/wDSWv8ATFXf9Ch/nL/yzWP/AElp/TFX&#xA;f9Ch/nL/AMs1j/0lr/TFXf8AQof5y/8ALNY/9Ja/0xV3/Qof5y/8s1j/ANJa/wBMVd/0KH+cv/LN&#xA;Y/8ASWv9MVd/0KH+cv8AyzWP/SWv9MVd/wBCh/nL/wAs1j/0lr/TFXf9Ch/nL/yzWP8A0lr/AExV&#xA;3/Qof5y/8s1j/wBJa/0xV3/Qof5y/wDLNY/9Ja/0xV3/AEKH+cv/ACzWP/SWv9MVd/0KH+cv/LNY&#xA;/wDSWv8ATFXf9Ch/nL/yzWP/AElr/TFXf9Ch/nL/AMs1j/0lr/TFXf8AQof5y/8ALNY/9Ja/0xV5&#xA;15//AC+8x+RNdXRPMCRR37QJchYZBKvpyFlX4h3qhxV9Rf8AOKuu2Ogfkzd3Mx5zz6vcmG3B+JmE&#xA;EC/Qo47nMbU6mOKNnn0Dm6HQz1E6HLqe58gX7l7+5c9Wlcn6WOZETYcSYokPvHzb/wA4uflR5m1u&#xA;41m4trqwu7tjJdLYzCKKSRjVpCjpIAzHrxoPpwsUl/6E2/KP/f2q/wDSTF/1RxV3/Qm35R/7+1X/&#xA;AKSYv+qOKu/6E2/KP/f2q/8ASTF/1RxV3/Qm35R/7+1X/pJi/wCqOKu/6E2/KP8A39qv/STF/wBU&#xA;cVeoeQvy78p+RNGOk+XLP6tA7epcSuxkmmkpTnJIdzt0HQdhir80MVfTX/OVXnS68xeXLNErFpkG&#xA;oxm3gPUn0Jh6j/5VPuzLy4RCHnbynZXbM9ZrZAbYowND/OjufP7mH/8AOIdf+Vy2tOn1G7r8uAzE&#xA;erfdWKuxV2KuxV2KuxV2KuxV2KuxV2KuxVTubm3tbeW5uZUgtoEaWeeVgiIiDkzuzUCqoFSTir5X&#xA;/P8A/wCcnNVtdWsNM/LbW7c2P1cT32p26Rzs0xkdRADMjqoVUDGg35daYqzb8pP+cmfK+peR4bjz&#xA;1rVpY+Yrd5IZ46FGnRACkwjUcVLg0IG1RtQbYq8b0/8A5y+/Mo+dY7+7kt/8NyXAEmi+jEFS2ZqH&#xA;jOFE3qKn7Relf2abYq9f/Ob/AJyb8u6R5RDeQdYs9S1+6nWEMoMgt4irM83BgFY1UKAdt69qYqxz&#xA;8gv+cn7rU7m90r8ydXtISqrLp+rTLHa8mLBGhkEapF3DBqCm9cVfTkckcsayRsHjcBkdSCrKRUEE&#xA;dQcVfEX/ADmT/wCTch/7ZVt/ydmxVNvyB5t5IdRVj9elCqN+qR7DOe7U/vfg9p2DQ09/0j+h893w&#xA;K3twpFCJHBHvyOb+PIPHZDcj736m5Jg7FXYq7FXYq7FXYq/KvFX0J+e+h6hH+W9lrMicLOTVobeE&#xA;tsXY29wxKj+UcKVzP1mQVw9XhPZHQ5BOWcioGPCPPcfZskv/ADiH/wCTltv+YG7/AOIjMB7t91Yq&#xA;8Y/5yC/P67/LObS9O0rTYr/U9QR7h3uWcQxwo3AfChVmZ2r+0KU71xV45/0O15//AOrFpX3XP/VX&#xA;FXf9Dtef/wDqxaV91z/1VxVUg/5zb88LMhn8v6ZJCGBkRDcIxWu4Vi7hT78T8sVfW3lzWrfXfL2l&#xA;65bI0dtqtpBewRvTmqXEayqGptUBt8VTDFXYq7FXYq7FXYq8z/5ySu47f8lvMwMwhkmgjjiBYKzl&#xA;p4+SrvvVa1Hhir4H0DQdU17VYNK0uH1724J9NKhRRQWZizEAAKK5DJkEBZ5NuHDLJIRjzLOf+hf/&#xA;AMxP982v/I8f0zE/lDH5ux/kXP5fNSl/Inz1E3GX6lG3WjXKKfxw/n8fmzj2DqZchaov5A/mEyhl&#xA;jtWU7gi4Ug/hg/lDH5sT2LnHd82D6/oOqaDqs+lapD6F7bkeolQwowDKwZSQQVNcy8eQTFjk63Nh&#xA;ljkYy5h+hf5IXsF1+U3lT051neHTLWKbi4coyxKODUJoR4HJtT5Z/wCcyf8AybkP/bKtv+Ts2KvV&#xA;v+cOPL9lJ5An1icepOmpTxwKfspxjiJf/W328Mxzp4nJxnm5g1sxh8IbC7Pn5Pj/AFb/AI6t5/xn&#xA;k/4mcyHDfqTirsVdirsVdirsVdir8q8Vfaf/ADmjFHF+U+kRRKEjTW7dURRQACzugAAMSWMYiIAA&#xA;oB4t/wA4h/8Ak5bb/mBu/wDiIxZPurFWE/mX+T3kr8xoLRPMUEvr2Jb6reW0npTKr05pUhlZW4j7&#xA;Smnam+KsA/6E2/KP/f2q/wDSTF/1RxV3/Qm35R/7+1X/AKSYv+qOKqkH/OHX5QRzJI7anMiMGaF7&#xA;pQrgH7LcIkah9mBxV7XZ2drZWcFlaRLBaW0aQ28CDiiRxqFRFA6BVFBiqtirsVdirsVdirsVfGP/&#xA;ADmJ5e86t58TWbiC4uPLAtIk0+4RWe3t2G0yOR8MbtJ8XxfaFOtNlXnX5Ef+TK07/jHcf8mHzD1/&#xA;90XZ9j/4wPcfue7+ffNFxpscdhZNwup15ySjqkdaDj7sa79s0mON7vpnY3Z8cpM57xHTvLzGec/v&#xA;J55K9Xklc16bkknLwHrJSjjiSajGI+AATDyv5t1DTbjnEs0USMBcWFwrRllYBg3Bvs80IZW/2scm&#xA;Kubp4T0/aWIyiCCDVkVLyP8AVPP9R5QH87riK5/MK8uIjyimgtXQ+KtboRm00I/dD4vkXbcDDUyi&#xA;eYemf84e+XPO8Xn19Yhtrm28stZyLf3EivHbzlh+4VOVFkYP8QK1oK+O+Y6lLP8AnMn/AMm5D/2y&#xA;rb/k7Nir2r/nDb/yUc3/AG1bn/k1Dir4r1b/AI6t5/xnk/4mcVfqTir5w/NP/nLuPyx5svPL3l7R&#xA;49S/Rkj299e3MrIhnjPGSOJEFaIwKlidz2puVWH/APQ73mr/AKlqx/5HTYq7/od7zV/1LVj/AMjp&#xA;sVd/0O95q/6lqx/5HTYq7/od7zV/1LVj/wAjpsVe6fkh+dmm/mfpF5KtodN1fTWRb6y5+ovGUH05&#xA;Y3opKtwYUIqD9BKr89sVfan/ADms6j8rtJQkczrcBC13IFpdVNPaoxtNGreK/wDOIf8A5OW2/wCY&#xA;G7/4iMUPurFXYq7FXYq7FXYq7FXYq7FXYq7FXYq+ff8AnKr83fLGmeWNT/L/AIzXGvapbxO3phfR&#xA;t09ZZF9ViQeTCPZVB96Yq+bvyI/8mVp3/GO4/wCTD5h6/wDui7Psf/GB7j9z0L81tc0uw8wSPPco&#xA;zCFKQxsHkqKgrxB2NR3zWYMMpDYPp2j7b0uk015JjiBPpG8j8P0nbzQnk7yffappx85a44GmRRyX&#xA;Gn6IQeEvpgmKSc1FRzWoUjfY9Nsty5I4/RH6up/U6LHqs/aeaMshMcMpCsY5VfOXf37sS0zUdWvP&#xA;MuqyTBZopJ3a4vGqWJA4ogNabd8syxiMce+uTt+w8+c67PCMY+CJm5e4VGA3rbr8e8JB+Z0UkXmk&#xA;pIKP9UtCQeoDQKR+BzM0X9383hPaiQOvyEd76y/5xr/Ovyr5g0LSPIqRz2mu6Tp8cYEwUxXC26hX&#xA;aJ1JNR14sBt0rvmU8+8W/wCcyf8AybkP/bKtv+Ts2Ks+/wCccfO8Wgfk3NbW1JNVn1O5MSndY1Mc&#xA;Q9RvHpsMyMGDjNnk8/2722NJHhjvlkNvId5/Q+Ur1i15OzGrGRyT7ljlBd7jNxHufqdgZvjj83/+&#xA;cWPzDm87anq3lK0j1fStVuZbxY/XgglgedjI8bi4eIFQzHiVJ264qwf/AKFc/Pb/AKln/p+0/wD7&#xA;KMVd/wBCufnt/wBSz/0/af8A9lGKu/6Fc/Pb/qWf+n7T/wDsoxV3/Qrn57f9Sz/0/af/ANlGKvpT&#xA;/nGj8lNb/LrTNUvvMEkY1fWPRU2cLiRIIoORAZwOJdmkNeJIAA364q+FsVfSf/OT+tX2seWbS7u2&#xA;qTqUYjjH2UX0J6KozS6HPLLmMpfzf0h6jtbSQwaWMY/zx8dixb/nEMV/OW19rG7/AOIDN08u+6sV&#xA;dirsVeQeaf8AnKj8qfLuu3eizy3l7c2MhhuZbOBZIllQ0dA7vHyKkUNBT3xVKf8Aocn8o/8AfOq/&#xA;9I0X/VbFXf8AQ5P5R/751X/pGi/6rYq7/ocn8o/986r/ANI0X/VbFXf9Dk/lH/vnVf8ApGi/6rYq&#xA;7/ocn8o/986r/wBI0X/VbFXf9Dk/lH/vnVf+kaL/AKrYqq23/OYn5QTXEcT/AKSt0dgrTyWylEBP&#xA;2m4SO1B7KTir2y2ube6t4rm2kWa3nRZIZUIZXRxyVlI6gg1GKvmn/nK78lIb6DUPzLs78QS2dtCm&#xA;o2DoWE3F1hR43B+E8WUFSKbVxV4F+R8hi/MWxkCNIUhuSI0oWakD7CpAr9OYeu/uj8HZ9kf349x+&#xA;56xY/l9q2v8AnO68y65Yw6Pp0yiP9Ej0riS5C9JLmolhBOx237f5R18tRGGMQieI9/d7ncw0csmY&#xA;5JgRj/N2N+/mEB+a2s6vb2F1ZQFdP0+3jKWcApGpSJvTDcV91IjHTYfPIaaIMxe9vYyxw0/Z+TLi&#xA;IGUQ+r+bfSP9Kjt/SICv+Wf5bXaaPp9xrC+jEV9b6of7x+ZLgSfyih3HXtjqswMzTi9m9ofltBDD&#xA;AfvKNnu4iT89/wC15l+e235lagB/vq2/5MJmz0H90HgO2P8AGD8H0H/zjD+QyaIdM/MW/wBRW6mv&#xA;7ASabYxIVEIukHJpHJ+JghK0ApvXMx1bzH/nMgj/AJW5F7aVbV/5GTYqi/yDsrq+8sfVLSJpria+&#xA;lWONepPBM2WlkBCy+de02GeXXRhAXIwH3l4NfoUvrhG6rK6n5hiM1pfQ4CgA/U3Fk7FXYq7FXYq7&#xA;FXYq/KvFX1D/AM5K+VbrTvyr03U7ysc9xrEEcdueqo1rctV/8o8Rt2zV9naQw9cuZ6PQdtdoxy/u&#xA;4biJu/PyYR/ziH/5OW2/5gbv/iIzaPPvurFXYq7FXyT55/5w283X3mnUdQ8uavpx0u9nkuYo7954&#xA;po/VYuYz6UM6sFJoGqK+GKpD/wBCVfmn/wBXXQ/+ki8/7JMVd/0JV+af/V10P/pIvP8AskxV3/Ql&#xA;X5p/9XXQ/wDpIvP+yTFXf9CVfmn/ANXXQ/8ApIvP+yTFXf8AQlX5p/8AV10P/pIvP+yTFXf9CVfm&#xA;n/1ddD/6SLz/ALJMVVrL/nCf8x2uolvdZ0eG0LD15YZLqWRV7lY2t4lY+xcYq+v/AC/o1roeg6bo&#xA;toWa10u1gsrcuasY7eNYk5Hx4rir5R/5y4/NTzjF5nufIdtJ9T8um1gkuoxGpa7MlJeRkYFgiMoU&#xA;BCNwa17KvF/yo8waXoHnmw1LVJDDZIJUlmCluPqRMqkhQTSp7DMbV4zPGQObndnZo48wlLk+hf8A&#xA;lcf5a/8AV8j/AORc/wD1TzTfk8v816f+UtP/ADh9rGNd80/lPrnmaw1bUdfjls9PjHDTzDPwkmVy&#xA;yPIeG6py+z3PXbY3Y8OaESBHc9Vy9p4JwjAz9MZGVb7mgAT7q297J/8Alcf5a/8AV8j/AORc/wD1&#xA;Tyn8nl/mr/KWn/nD7Xz1+a/mDS9f883+paXIZrJxEkUxUry9OJVYgMAaVHcZudJjMMYB5vMdo5o5&#xA;MxlHk9t/5xP/ADd88Xvmu18j38/1/QEspBaIY0VrQWyAoRIiqxQgcCHruRTvXJcFjH/OZP8A5NyH&#xA;/tlW3/J2bFXsH/OGemWS/lrdal6YN5JqU8RlO5EaxxHiPDc1OS4jVdGgaaAynLXrIq/J8a6t/wAd&#xA;W8/4zyf8TORb36k4q7FXYq7FXYq7FXYq/KvFX2r/AM5q/wDkrNK/7blv/wBQd3irxT/nEP8A8nLb&#xA;f8wN3/xEYq+6sVdirsVYxrX5n/l1oeoSadq/mTTrG/iAMtrNcxrInIVHJSarUb74qgf+V1/lH/1N&#xA;+lf9JUX9cVd/yuv8o/8Aqb9K/wCkqL+uKu/5XX+Uf/U36V/0lRf1xV3/ACuv8o/+pv0r/pKi/rir&#xA;v+V1/lH/ANTfpX/SVF/XFXf8rr/KP/qb9K/6Sov64qq2v5xflVdXMdtb+bdKeeZgkSfW4gWY7BRV&#xA;hue2KswxVgv5tflPoH5g+XLu0uba3TXBA0elatJGDJA9eSjmPi4Fh8Q9ztXFXwl+ZX5Z+Y/y712D&#xA;Rdfa3e7uLZbyNrV2kj9N5JIxUssZryiO1MVZB+XX/OPfn3z/AOX213QnsUsVne2pdTPG/OMKzbLG&#xA;4p8Y74q83+rXH1n6r6bfWefpejQ8+dePGnWtdsVeh/mT+QXnv8vNFt9Y142b2VxcLaKbSV5WEjI0&#xA;g5Bo0oCIziqVflj+VPmf8x9VutN0BreOSziE9xLdu8caozhBuiSb71pTscVfd/5a/lZ5W8h6NbWu&#xA;mWVuNUFtFBqOqpEEmuXRRzZjuwVnHLjXFXyl/wA5k/8Ak3If+2Vbf8nZsVe1f84bf+Sjm/7atz/y&#xA;ahxV8VaqQdUvCDUGeSh/2ZxV+pWKpd5h8w6N5d0W71rWbpbPTLJPUuLh60ArQAAVLMxICqNydhir&#xA;xOX/AJzT/KpJGRdN1uRVJAkW3tQrAdxyulb7xiq3/odX8rP+rVrn/SPZ/wDZXirv+h1fys/6tWuf&#xA;9I9n/wBleKu/6HV/Kz/q1a5/0j2f/ZXir1X8u/zM8p/mBorar5duGkjif07q2mX054HIqFkSpG43&#xA;BUlT47HFX5q4q+zf+c1tQs/+VeaTp/qg3h1eGf0RuRGtrcryPhu22S4TV9Gn8xDxPDv11xV5cv0v&#xA;HP8AnEP/AMnLbf8AMDd/8RGRbn3VirsVdir4P/Mb/nHz8318761PBotxq9vd3k91BqNuUdZUmkZw&#xA;zfFyVvi+IHvirG/+VA/nJ/1Kd9/wK/8ANWKu/wCVA/nJ/wBSnff8Cv8AzVirv+VA/nJ/1Kd9/wAC&#xA;v/NWKu/5UD+cn/Up33/Ar/zVirv+VA/nJ/1Kd9/wK/8ANWKu/wCVA/nJ/wBSnff8Cv8AzViqtaf8&#xA;48fnNdXUVuvla6iMrBfUmMcca17s7MAAMVffflfTLvSfLOkaXeXH1u7sLK3tbm6JJMskMSxvJU7/&#xA;ABMtd8VTPFWHfmD+UnkTz+lt/iXT/rE9nUW11E7wzKrGrJzQjkp8Gr7YqnvlnyxoXljRLbRNCs0s&#xA;dMtF4wwJU9TVmZmJZmY7lmNTiqS/8qj/AC1/xR/in/D1p+nvV+s/XOB/v68vW9Ovp+py+Lnx5ct6&#xA;1xVP9d0DRtf0qfSdas4r/TrkcZ7aZeSNQ1B9iDuCNwemKoDyh5D8n+TrSa08s6VBpkNwwe49IEvI&#xA;y1485HLO3Gp4gnau2Kp9ir4g/wCcyf8AybkP/bKtv+Ts2Ksw/wCcevNF3aflLLpFpWIy6lcPcTg/&#xA;EVaOIcF8Om5zUdpaqUfRHrzek7D7PjP97LejsP0vmC8/3rn/AOMjf8SObWHIPPZPqPvfqdkmDzP/&#xA;AJyL8k655x/K2/0vQ1Muowyw3cVopAM4harRCvfiSyjuQBir4Pl8m+b4ZGim0PUI5UNHR7WZWBHY&#xA;grUYqs/wn5p/6s19/wBI03/NOKu/wn5p/wCrNff9I03/ADTirv8ACfmn/qzX3/SNN/zTir6x/wCc&#xA;PPy881eXdP13W9cs5dOh1b6vFZWtwjRzOsBkLStG1GVf3lFqN9z0pVV8c4q97/5yCvbq+8uQXd3K&#xA;01xNqMbSSN1J9GbNjqogQAHe+e+y2aeXWznM3IwP+6il3/OIf/k5bb/mBu/+IjNc+hPurFXYq7FX&#xA;Yq7FXYq7FXYq7FXYq7FXYq7FXYq7FXYq7FXYq7FXxB/zmT/5NyH/ALZVt/ydmxVlH/OMXl+91ryp&#xA;Jb244xrfSmecj4UXhHuffwGaXWaeWXPQ7g9T2brYafScUufEaHfyfNepIE1G6QbhZpAD8mIzcgUH&#xA;l5Gzb9S8KHYq7FXYq7FXYq7FX5V4q+qf+cmvJMfl/wDKPS7m4IfVLjWrdZWB+GNDaXR9NfHcCpzI&#xA;z5+M0OTz/YXYg0keKW+WQ38h3frYB/ziH/5OW2/5gbv/AIiMx3oH3VirsVdir86fzisfP035j663&#xA;mW3vJb763N6RkSRk+r8z6PoGhHpcKcOO1MVYZ+idV/5Y5/8AkW/9MVd+idV/5Y5/+Rb/ANMVd+id&#xA;V/5Y5/8AkW/9MVd+idV/5Y5/+Rb/ANMVZt+TFj59h/MvQW8uQXcV6buH12RJFj+rcx6/r7U9L068&#xA;q/rxV+ieKuxV2KuxV2KuxV2KuxV2KuxV8Qf85k/+Tch/7ZVt/wAnZsVe0/8AOGqqPylnIFC2rXPI&#xA;+NIoRjSbfFmrf8dW8/4zyf8AEzih+pOKuxV2KuxV2KuxV2KvyrxV9q/85q/+Ss0r/tuW/wD1B3eK&#xA;vFP+cQ//ACctt/zA3f8AxEYq+6sVdirsVdirsVdirsVdirsVdirsVdirsVdirsVdirsVdirsVfEH&#xA;/OZP/k3If+2Vbf8AJ2bFXtH/ADh3LHF+T9zLKwSNNUumd2NAAIoSSScQGMpCIJJoB8WamyvqV26m&#xA;qtNIQfYscUg2LfqVil2KuxV2KuxV2KuxV+VeKvrv/nMvzTYXnk+w0S1PqvbatFLcTA/Crrb3CemP&#xA;E/Hv4ZacREeIusxdqY8mpOCG5jEknzsCvt3eXf8AOIf/AJOW2/5gbv8A4iMqdm+6sVdirsVdirsV&#xA;dirsVdirsVdirsVdirsVdirsVdirsVdirsVfEH/OZP8A5NyH/tlW3/J2bFU3/JHzBqC/lg2ixv6d&#xA;mdRnmmC9ZGZIqBj/ACjj08c2GkxiuLq8F7W6/IJjADUOEE+fP7Hzzd/71Tf67frOYB5vdY/pHufq&#xA;dgZuxV53+f8A531nyZ+V+qazo3w6kWitre4oGEBncIZaEEVUV4125U+WKvhGX8x/zClkaSTzPqzS&#xA;OSzMb65qSf8AZ4qt/wCVhefv+pl1X/pOuf8AmvFXf8rC8/f9TLqv/Sdc/wDNeKvqv/nEH8yfNfmf&#xA;Tdb0XX7uXUl0f6vJZ3twxkmCT+opidz8TgGKqljXr2pRV8aYq91/PRWPlC1ahKjUIgW7VMM1P1Zs&#xA;tZ9I975z7IA/mpH/AGs/7qLF/wDnHjzv5d8l/mRDrnmCdrbTktbiJpUjeU85FAUcUDNmtfRn1R/0&#xA;Nh+SX/V3n/6Q7n/mjFXf9DYfkl/1d5/+kO5/5oxV3/Q2H5Jf9Xef/pDuf+aMVd/0Nh+SX/V3n/6Q&#xA;7n/mjFXf9DYfkl/1d5/+kO5/5oxV3/Q2H5Jf9Xef/pDuf+aMVd/0Nh+SX/V3n/6Q7n/mjFXf9DYf&#xA;kl/1d5/+kO5/5oxV3/Q2H5Jf9Xef/pDuf+aMVd/0Nh+SX/V3n/6Q7n/mjFXf9DYfkl/1d5/+kO5/&#xA;5oxV3/Q2H5Jf9Xef/pDuf+aMVd/0Nh+SX/V3n/6Q7n/mjFXf9DYfkl/1d5/+kO5/5oxV3/Q2H5Jf&#xA;9Xef/pDuf+aMVd/0Nh+SX/V3n/6Q7n/mjFXf9DYfkl/1d5/+kO5/5oxV3/Q2H5Jf9Xef/pDuf+aM&#xA;Vd/0Nh+SX/V3n/6Q7n/mjFXy9/zkh588ted/zCj1ny7cNc6ethBbmR43iPqI8jMOMgU9HGKvS/8A&#xA;nFvyXdeYvLEruTFpkF9ILicdSeEZ9NP8qn3ZmYs4hj83ke0+xp6zXAnbFGIs/E7Dz+581amqpqV2&#xA;iiirNIAPYMcw3rQKFP1KxS7FUv8AMPl/R/MWi3eiazbLeaZfR+lc271AZagggihDKwBUjcHcYq8J&#xA;uP8AnCj8u3nd4dZ1aGJiSkRa3fiD25GEVxVT/wChJfIP/V91X77b/qlirv8AoSXyD/1fdV++2/6p&#xA;Yq9d/Lf8rvKX5eaNJpfl2GQCdxJeXlwwkuJ3UUUyMAq/COiqoUb7VJxV+bGKvu787PyUu/MH5VLo&#xA;HldFk1ayvIdRVZGWNrt445IWQyOVVDxnJWpptTvXLMmQzNlwOzuzsekx8EPiepL5Zj/5xz/OuReS&#xA;+VbkAGnxSW6n7mkGVuehNS/In82NM4fXvL8kBkrwDTW5Jp12EhOU5c8Mf1GnJ0+jy5r4I3SCT8ov&#xA;zHdgiaJKzsQFUSQkknoAOeVDXYT/ABfe5J7I1IFmP2j9adD/AJxv/O0gEeVp9/GW2H65cy3Wlv8A&#xA;6Fu/O3/qVp/+R1t/1VxVTuP+cd/zmtoHnuPLUsUMQLSSPPahVA7kmXCBfJhkyRhEykaiOqQ/8qw8&#xA;+f8AVpk/4OL/AJry38vPudT/AKINF/qg+R/Um2l/kL+buqW/1mw8tzzQVK+oJIFUkdacpBX6MrlA&#xA;xNF2Gl1ePPHixnij37/pRn/Qt352/wDUrT/8jrb/AKq5FyXf9C3fnb/1K0//ACOtv+quKpVe/kv+&#xA;Z1lcNbXWhyRzp9tPWt2Ir48ZDmNk1eKBondzsPZufJHijGx8G7H8lfzQv7hbez0CaaZqkIskPQdS&#xA;fj2GHHq8czUTZ+KM3Z2fFHinGh7x+tNP+hbvzt/6laf/AJHW3/VXMhwnf9C3fnb/ANStP/yOtv8A&#xA;qriqE1H8hPzc02JZb7y7LAjnihaa2qT7ASk5VlzQxi5Gm/T6bJmNQFlLv+VSfmJ/1ZZP+RkP/NeU&#xA;fn8P8773L/kfU/zPtH606j/5xy/OuSNZF8rXHFgCKy26mh9jKCMywbFuulEg0V3/AELd+dv/AFK0&#xA;/wDyOtv+quFCncf847/nNbQPPceWpYoYgWkkee1CqB3JMuEC+TDJkjCJlI1EdUh/5Vh58/6tMn/B&#xA;xf8ANeW/l59zqf8ARBov9UHyP6k20v8AIX83dUt/rNh5bnmgqV9QSQKpI605SCv0ZXKBiaLsNLq8&#xA;eePFjPFHv3/S+xP+ccfy517yD+XX6K17gmp3l5Lfz2yMriD1EjiWIuhZWakPIlTTem/XIuS+B9W/&#xA;46t5/wAZ5P8AiZxV+pOKuxV2KuxV2KuxV2KvyrxV9Qf9Dx6r/wBSjB/0mv8A9UcVaP8AznFq1DTy&#xA;lAD2JvXP/MnFQw7Uv+cn9Y1K8ku7vRo5JpD/AMtDUA7Ko9PYDNXl7NM5cUp7+79r0GDtyOKAhDHQ&#xA;H9L9iM8u/wDOVEmj3Jum8qw3VwNone7ZQniQPSO/vlum0EcRu7Lja7tieePCBwx6+bJv+h49V/6l&#xA;GD/pNf8A6o5nuod/0PHqv/Uowf8ASa//AFRxVjnmz/nLjX/MKJA2hxWtknxG3S5ZubeLt6YrTsMu&#xA;w5RDet3Tdq9lT1gETk4IDoBz9+7Hrb8/5EnjefQkmhUgvELlkLAduXpmmXnWmtg6bH7HYxIGWQkd&#xA;1V9ts/tv+c2r62gjt7fydbRQxKFjjW8cBQOgA9HMMm9y9fjxxhERiKiFX/oePVf+pRg/6TX/AOqO&#xA;BmoXv/ObuuzWskVv5YgtpXFBN9bZyte4BiG+QyRJFA0W3DOMZAyHEO7kwt/+cj752LvoiM7ElmNy&#xA;xJJ6kn081R7Jv+L7P2vQD2ioUMf2/sZJ5d/5y+m0O2MVv5Rgkmk3muGvG5N4D+52A8Mz9NpY4hQ5&#xA;97qNdr56iVy2A5BN/wDoePVf+pRg/wCk1/8AqjmS4Lv+h49V/wCpRg/6TX/6o4qxLWv+cp9a1e9a&#xA;7u9FjLHaOMXDcUX+VR6ea3P2ecsuKUvs/a73SdsxwQ4Y4/t5/Yu0P/nKB9MvVu5fK8N5JHvCr3bK&#xA;qt/NT0jUjth0/ZsccuIniY6ztueaHDEcAPPdlf8A0PHqv/Uowf8ASa//AFRzYukd/wBDx6r/ANSj&#xA;B/0mv/1RxVjnmz/nLjX/ADCiQNocVrZJ8Rt0uWbm3i7emK07DLsOUQ3rd03avZU9YBE5OCA6Ac/f&#xA;ux62/P8AkSeN59CSaFSC8QuWQsB25emaZedaa2DpsfsdjEgZZCR3VX22z+2/5zavraCO3t/J1tFD&#xA;EoWONbxwFA6AD0cwyb3L1+PHGERGIqIVf+h49V/6lGD/AKTX/wCqOBm+ZLqc3F1NORxMrs5XrTkS&#xA;aYq/U/FXYq7FXYq7FXYq7FX51eaf+VKf4j1H9Dfpv9F/WH+qcfq3DhX/AHXz+Ph/Jy+LjSu+KpX/&#xA;AMgs/wC15/06Yq7/AJBZ/wBrz/p0xVaP+VX8jX9N8duP+8lfeuKdl3/ILP8Atef9OmKHf8gs/wC1&#xA;5/06Yq7/AJBZ/wBrz/p0xVRuv+Vbeg31T9M/WNuHq/VeHUVrx36Yql//ADq3/L9/yRxV3/Orf8v3&#xA;/JHFXf8AOrf8v3/JHFXf86t/y/f8kcVd/wA6t/y/f8kcVd/zq3/L9/yRxV3/ADq3/L9/yRxV3/Or&#xA;f8v3/JHFXf8AOrf8v3/JHFXf86t/y/f8kcVd/wA6t/y/f8kcVd/zq3/L9/yRxV3/ADq3/L9/yRxV&#xA;3/Orf8v3/JHFXf8AOrf8v3/JHFXf86t/y/f8kcVTHy9/yrv9OWP6d/Sf6H9Zfr3oej6npV3p/Gm9&#xA;Om+Kv//Z</xmpGImg:image>
               </rdf:li>
            </rdf:Alt>
         </xmp:Thumbnails>
         <xmpTPg:NPages>1</xmpTPg:NPages>
         <xmpTPg:HasVisibleTransparency>False</xmpTPg:HasVisibleTransparency>
         <xmpTPg:HasVisibleOverprint>False</xmpTPg:HasVisibleOverprint>
         <xmpTPg:MaxPageSize rdf:parseType="Resource">
            <stDim:w>549.720000</stDim:w>
            <stDim:h>325.080000</stDim:h>
            <stDim:unit>Pixels</stDim:unit>
         </xmpTPg:MaxPageSize>
         <xmpTPg:PlateNames>
            <rdf:Seq>
               <rdf:li>Cyan</rdf:li>
               <rdf:li>Magenta</rdf:li>
               <rdf:li>Yellow</rdf:li>
               <rdf:li>Black</rdf:li>
            </rdf:Seq>
         </xmpTPg:PlateNames>
         <xmpTPg:SwatchGroups>
            <rdf:Seq>
               <rdf:li rdf:parseType="Resource">
                  <xmpG:groupName>Группа образцов по умолчанию</xmpG:groupName>
                  <xmpG:groupType>0</xmpG:groupType>
               </rdf:li>
            </rdf:Seq>
         </xmpTPg:SwatchGroups>
         <pdf:Producer>Adobe PDF library 15.00</pdf:Producer>
      </rdf:Description>
   </rdf:RDF>
</x:xmpmeta>
                                                                                                    
                                                                                                    
                                                                                                    
                                                                                                    
                                                                                                    
                                                                                                    
                                                                                                    
                                                                                                    
                                                                                                    
                                                                                                    
                                                                                                    
                                                                                                    
                                                                                                    
                                                                                                    
                                                                                                    
                                                                                                    
                                                                                                    
                                                                                                    
                                                                                                    
                                                                                                    
                           
<?xpacket end="w"?>
	</metadata>
<g id="Слой_1" display="none">
	
		<image display="inline" width="512" height="512" xlink:href="../Downloads/express-mail-express-pngrepo-com.png"  transform="matrix(1 0 0 1 17.44 -95.96)">
	</image>
</g>
<g id="Слой_2">
	<g id="Слой_8">
		
			<rect x="451.1" y="278.5" transform="matrix(-0.7071 0.7071 -0.7071 -0.7071 1007.689 155.5786)" fill="#6AC8B7" width="41.1" height="15.9"/>
		<path fill="#6AC8B7" d="M499.1,271.5l27.5-27.5c0.4-0.4,0.4-1.2,0-1.6l-9.6-9.6c-0.4-0.4-1.2-0.4-1.6,0l-27.5,27.5
			c-0.4,0.4-0.4,1.2,0,1.6l9.6,9.6C498,272,498.7,272,499.1,271.5z"/>
		
			<rect x="243.9" y="277.7" transform="matrix(-0.7071 0.7071 -0.7071 -0.7071 653.4016 300.7292)" fill="#6AC8B7" width="41.1" height="15.9"/>
		
			<rect x="130.4" y="252" transform="matrix(-0.7071 0.7071 -0.7071 -0.7071 441.5698 337.0328)" fill="#6AC8B7" width="41.1" height="15.9"/>
		
			<rect x="130.4" y="191.9" transform="matrix(-0.7071 0.7071 -0.7071 -0.7071 399.0868 234.4698)" fill="#6AC8B7" width="41.1" height="15.9"/>
		
			<rect x="131.7" y="129.7" transform="matrix(-0.7071 0.7071 -0.7071 -0.7071 357.2581 127.2359)" fill="#F07B52" width="41.1" height="15.9"/>
		
			<rect x="131.7" y="69.3" transform="matrix(-0.7071 0.7071 -0.7071 -0.7071 314.5489 24.1266)" fill="#6AC8B7" width="41.1" height="15.9"/>
		
			<rect x="174.2" y="26.8" transform="matrix(-0.7071 0.7071 -0.7071 -0.7071 356.9851 -78.3236)" fill="#6AC8B7" width="41.1" height="15.9"/>
		
			<rect x="312.8" y="26.5" transform="matrix(-0.7071 0.7071 -0.7071 -0.7071 593.5076 -176.8619)" fill="#6AC8B7" width="41.1" height="15.9"/>
		
			<rect x="453.1" y="26.3" transform="matrix(-0.7071 0.7071 -0.7071 -0.7071 832.7714 -276.4482)" fill="#6AC8B7" width="41.1" height="15.9"/>
		
			<rect x="486.7" y="122.6" transform="matrix(-0.7071 0.7071 -0.7071 -0.7071 958.2427 -135.7801)" fill="#6AC8B7" width="41.1" height="15.9"/>
		
			<rect x="383.7" y="26.3" transform="matrix(-0.7071 0.7071 -0.7071 -0.7071 714.2601 -227.3592)" fill="#F07B52" width="41.1" height="15.9"/>
		
			<rect x="243.1" y="26.8" transform="matrix(-0.7071 0.7071 -0.7071 -0.7071 474.7477 -127.1025)" fill="#F07B52" width="41.1" height="15.9"/>
		
			<rect x="172" y="279.7" transform="matrix(-0.7071 0.7071 -0.7071 -0.7071 532.1566 354.8204)" fill="#F07B52" width="41.1" height="15.9"/>
		
			<rect x="314.1" y="277.7" transform="matrix(-0.7071 0.7071 -0.7071 -0.7071 773.2745 251.0762)" fill="#F07B52" width="41.1" height="15.9"/>
		
			<rect x="382.6" y="278.5" transform="matrix(-0.7071 0.7071 -0.7071 -0.7071 890.7646 204.0103)" fill="#F07B52" width="41.1" height="15.9"/>
		
			<rect x="487.5" y="181.6" transform="matrix(-0.7071 0.7071 -0.7071 -0.7071 1001.275 -35.7202)" fill="#F07B52" width="41.1" height="15.9"/>
		
			<rect x="487.5" y="60.7" transform="matrix(-0.7071 0.7071 -0.7071 -0.7071 915.89 -242.0194)" fill="#F07B52" width="41.1" height="15.9"/>
	</g>
	<path d="M111.7,45.6h-84c-5.6,0-10.3,4.6-10.3,10.3v0c0,5.6,4.6,10.3,10.3,10.3h84c5.6,0,10.3-4.6,10.3-10.3v0
		C121.9,50.2,117.3,45.6,111.7,45.6z"/>
	<path d="M111.7,116H45.5c-5.6,0-10.3,4.6-10.3,10.3v0c0,5.6,4.6,10.3,10.3,10.3h66.1c5.6,0,10.3-4.6,10.3-10.3v0
		C121.9,120.6,117.3,116,111.7,116z"/>
	<path d="M111.7,183.1h-57c-5.6,0-10.3,4.6-10.3,10.3v0c0,5.6,4.6,10.3,10.3,10.3h57c5.6,0,10.3-4.6,10.3-10.3v0
		C121.9,187.7,117.3,183.1,111.7,183.1z"/>
	<path d="M111.7,254.4H71c-5.6,0-10.3,4.6-10.3,10.3v0c0,5.6,4.6,10.3,10.3,10.3h40.7c5.6,0,10.3-4.6,10.3-10.3v0
		C121.9,259.1,117.3,254.4,111.7,254.4z"/>
	<g id="Слой_3">
		<path d="M135.8,12.8h291.4c3.3,0,6,2.7,6,6v3.4c0,3.3-2.7,6-6,6H135.8c-3.3,0-6-2.7-6-6v-3.4C129.8,15.5,132.5,12.8,135.8,12.8z"
			/>
		<path d="M135.8,292.4l387.6,0.4c3.3,0,6,2.7,6,6l0,3.4c0,3.3-2.7,6-6,6l-387.6-0.4c-3.3,0-6-2.7-6-6l0-3.4
			C129.8,295.1,132.5,292.4,135.8,292.4z"/>
		<path d="M458.9,12.8h64.6c3.3,0,6,2.7,6,6v3.4c0,3.3-2.7,6-6,6h-64.6c-3.3,0-6-2.7-6-6v-3.4C452.9,15.5,455.6,12.8,458.9,12.8z"/>
	</g>
	<path d="M145.2,20.9v277.2c0,3.3-2.7,6-6,6h-3.4c-3.3,0-6-2.7-6-6V20.9c0-3.3,2.7-6,6-6h3.4C142.5,14.9,145.2,17.6,145.2,20.9z"/>
	<path d="M529.4,23.4v275.2c0,3.3-2.7,6-6,6h-3.4c-3.3,0-6-2.7-6-6V23.4c0-3.3,2.7-6,6-6h3.4C526.7,17.4,529.4,20.1,529.4,23.4z"/>
	<g id="Слой_4">
		<path d="M164.5,39.7h-0.7c-4.4,0-7.9,3.6-7.9,7.9v225.6c0,4.4,3.6,7.9,7.9,7.9h0.7c4.4,0,7.9-3.6,7.9-7.9V47.6
			C172.4,43.3,168.9,39.7,164.5,39.7z"/>
		<path d="M495,39.7L495,39.7c-4.4,0-7.9,3.6-7.9,7.9v225.2c0,4.4,3.6,7.9,7.9,7.9l0,0c4.4,0,7.9-3.6,7.9-7.9V47.6
			C502.9,43.3,499.4,39.7,495,39.7z"/>
		<path d="M502.9,273.2v-0.6c0-4.4-3.6-7.9-7.9-7.9H164.5c-4.4,0-7.9,3.6-7.9,7.9v0.6c0,4.4,3.6,7.9,7.9,7.9H495
			C499.4,281.2,502.9,277.6,502.9,273.2z"/>
		<path d="M502.8,47.6L502.8,47.6c0-4.4-3.6-7.9-7.9-7.9H164.4c-4.4,0-7.9,3.6-7.9,7.9v0c0,4.4,3.6,7.9,7.9,7.9h330.5
			C499.2,55.6,502.8,52,502.8,47.6z"/>
	</g>
	<g id="Слой_5">
		<path d="M252,83.4h-44.2c-4.1,0-7.4,3.3-7.4,7.4v0c0,4.1,3.3,7.4,7.4,7.4H252c4.1,0,7.4-3.3,7.4-7.4v0
			C259.4,86.7,256.1,83.4,252,83.4z"/>
		<path d="M347.6,135.4H234.2c-4.2,0-7.6,3.4-7.6,7.6v0c0,4.2,3.4,7.6,7.6,7.6h113.4c4.2,0,7.6-3.4,7.6-7.6v0
			C355.1,138.8,351.7,135.4,347.6,135.4z"/>
		<path d="M347.6,170.5H234.2c-4.2,0-7.6,3.4-7.6,7.6v0c0,4.2,3.4,7.6,7.6,7.6h113.4c4.2,0,7.6-3.4,7.6-7.6v0
			C355.1,173.9,351.7,170.5,347.6,170.5z"/>
		<path d="M312.5,205.2h-78.3c-4.2,0-7.6,3.4-7.6,7.6v0c0,4.2,3.4,7.6,7.6,7.6h78.3c4.2,0,7.6-3.4,7.6-7.6v0
			C320,208.6,316.6,205.2,312.5,205.2z"/>
	</g>
	<g id="Слой_6">
		<path d="M461.3,74h-72.5c-3.6,0-6.5,2.9-6.5,6.5v80.3c0,3.6,2.9,6.5,6.5,6.5h72.5c3.6,0,6.5-2.9,6.5-6.5V80.5
			C467.8,77,464.8,74,461.3,74z"/>
		<path d="M399.2,64.7L399.2,64.7c-4.2,0-7.7,3.5-7.7,7.7v2.5c0,4.2,3.5,7.7,7.7,7.7l0,0c4.2,0,7.7-3.5,7.7-7.7v-2.5
			C406.9,68.2,403.4,64.7,399.2,64.7z"/>
		<path d="M425,65.1L425,65.1c-4.2,0-7.7,3.5-7.7,7.7v2.5c0,4.2,3.5,7.7,7.7,7.7h0c4.2,0,7.7-3.5,7.7-7.7v-2.5
			C432.7,68.6,429.3,65.1,425,65.1z"/>
		<path d="M451,65.1L451,65.1c-4.2,0-7.7,3.5-7.7,7.7v2.5c0,4.2,3.5,7.7,7.7,7.7h0c4.2,0,7.7-3.5,7.7-7.7v-2.5
			C458.7,68.6,455.2,65.1,451,65.1z"/>
		<path d="M374.2,99.8L374.2,99.8c0,4.2,3.5,7.7,7.7,7.7h2.5c4.2,0,7.7-3.5,7.7-7.7v0c0-4.2-3.5-7.7-7.7-7.7h-2.5
			C377.6,92.1,374.2,95.6,374.2,99.8z"/>
		<path d="M374.2,126L374.2,126c0,4.2,3.5,7.7,7.7,7.7h2.5c4.2,0,7.7-3.5,7.7-7.7v0c0-4.2-3.5-7.7-7.7-7.7h-2.5
			C377.6,118.3,374.2,121.8,374.2,126z"/>
		<path d="M458.8,99.8L458.8,99.8c0,4.2,3.5,7.7,7.7,7.7h2.5c4.2,0,7.7-3.5,7.7-7.7v0c0-4.2-3.5-7.7-7.7-7.7h-2.5
			C462.3,92.1,458.8,95.6,458.8,99.8z"/>
		<path d="M458.8,126L458.8,126c0,4.2,3.5,7.7,7.7,7.7h2.5c4.2,0,7.7-3.5,7.7-7.7v0c0-4.2-3.5-7.7-7.7-7.7h-2.5
			C462.3,118.3,458.8,121.8,458.8,126z"/>
		<path d="M458.8,152.1L458.8,152.1c0,4.2,3.5,7.7,7.7,7.7h2.5c4.2,0,7.7-3.5,7.7-7.7v0c0-4.2-3.5-7.7-7.7-7.7h-2.5
			C462.3,144.5,458.8,147.9,458.8,152.1z"/>
		<path d="M374.2,152.1L374.2,152.1c0,4.2,3.5,7.7,7.7,7.7h2.5c4.2,0,7.7-3.5,7.7-7.7v0c0-4.2-3.5-7.7-7.7-7.7h-2.5
			C377.6,144.5,374.2,147.9,374.2,152.1z"/>
		<path d="M399.2,159.5L399.2,159.5c-4.2,0-7.7,3.5-7.7,7.7v2.5c0,4.2,3.5,7.7,7.7,7.7l0,0c4.2,0,7.7-3.5,7.7-7.7v-2.5
			C406.9,163,403.4,159.5,399.2,159.5z"/>
		<path d="M425.4,158.3L425.4,158.3c-4.2,0-7.7,3.5-7.7,7.7v2.5c0,4.2,3.5,7.7,7.7,7.7l0,0c4.2,0,7.7-3.5,7.7-7.7V166
			C433.1,161.8,429.7,158.3,425.4,158.3z"/>
		<path d="M451,158.3L451,158.3c-4.2,0-7.7,3.5-7.7,7.7v2.5c0,4.2,3.5,7.7,7.7,7.7h0c4.2,0,7.7-3.5,7.7-7.7V166
			C458.7,161.8,455.2,158.3,451,158.3z"/>
	</g>
	<g id="Слой_7">
		<path fill="#F58F6C" d="M449.2,88.3h-47.5c-2.5,0-4.5,2-4.5,4.5v55.8c0,2.5,2,4.5,4.5,4.5h47.5c2.5,0,4.5-2,4.5-4.5V92.8
			C453.7,90.3,451.7,88.3,449.2,88.3z"/>
	</g>
	<path fill="#FF0022" d="M452.4,114.6c0-12.5-10.3-22.7-23-22.7c-12.7,0-23,10.2-23,22.7c0,3.1,0.6,6.1,1.8,8.9c0,0,0.8,1.2,2.3,0.8
		c1.8-0.5,4.4-2.8,6.9-4.6c4.2-3,9.2-6.9,12.9-9.9c2.4-2,4.1-3.8,5.2-3.8c1.8-0.1,4,1.4,1.1,4c-2,1.9-3.4,4.4-4.1,5.7
		c-1.7,3.1-0.7,7.4-1.9,9.2c-1,1.4-2.3,2.3-3,2.6c-2.4,1-5.1,3.5-7,6.3c-1.3,2-1.1,4.6-1.2,5.7c0,0.3,3.5-3.8,5.7-4.2
		c0.7-0.1-1.1,2.9-1.6,6c-0.6,3.7,1.1,8.1,1.3,8c3.4-2.2,11.1-13,11.1-13C445.5,133.6,452.4,124.9,452.4,114.6z"/>
	<path fill="#0E0E0E" d="M437.9,106.6c-0.2,0-0.2,0.3-0.5,0.4c-0.3,0.1-0.6-0.1-0.9-0.2c-0.4-0.2-0.4-0.4-0.7-0.4
		c-0.4-0.1-0.7,0.1-0.8,0.1c-0.3,0.2-0.5,0.5-0.6,0.8c0,0.1-0.4,0.6-1.1,1.5c-0.6,0.8-1.1,1.4-1.4,1.8c-1.2,1.5-1.4,1.7-1.7,1.8
		c-0.8,0.3-1.3,0.4-1.3,0.4c-0.3,0-0.4,0-0.7,0.1c-0.5,0.2-0.9,0.7-0.8,0.9c0.1,0.1,0.5,0.1,1.2-0.1c0.8-0.1,1-0.2,1.1-0.1
		c0.1,0.1,0,0.4-0.7,1.1c-0.8,1-1.3,1.4-1.7,1.6c-0.5,0.3-0.4,0.2-2.3,0.8c-0.6,0.2-0.9,0.3-1.1,0.4c-0.7,0.4-1,0.9-1.5,1.6
		c-0.5,0.8-0.8,1.3-1.6,3c-0.4,0.8-0.9,1.6-1.3,2.5c-0.3,0.7-0.4,1.1-0.8,1.4c-0.7,0.7-1.7,0.8-1.9,0.8c-1.3,0.1-2.4-0.5-3.2-1
		c-0.8-0.4-0.7-0.6-1.2-0.7c-0.3-0.1-0.8,0.2-1.4,0.4c-0.6,0.2-1.6,0.4-1.6,0.5c0.1,0.4,0.8,0.8,2,1.4c0.9,0.5,1.7,0.7,2.3,0.9
		c0.9,0.3,1.4,0.5,2.3,0.5c0.6,0.1,1,0.1,1,0.1c-0.2,0.1-0.9,0.4-1.6,0.5c-0.5,0.1-1.1,0-1.2,0.1c-0.4,0.4-0.8,1-1.1,1.3
		c-0.5,0.6-1.2,1.4-2.8,2.7c-0.5,0.4-1.4,1.1-2.8,1.8c-0.6,0.3-2.1,1-4.2,1.4c-0.4,0.1-1.8,0.4-3.6,0.2c-0.2,0-1.2-0.2-1.2-0.2
		c0,0,0.7-0.2,1.5-0.5c0.6-0.2,1-0.5,2.1-1.4c1-0.9,1.9-1.7,2.5-2.3c2.6-2.4,3.8-3.7,3.6-4c-0.1-0.2-1.6-0.8-2.2-1.4
		c-0.3-0.4-0.8-0.9-1.3-1.6c-0.4-0.6-0.9-1.7-0.5-1.7c0.4,0.1,0.5,0.1,1.1,0.1c0.4,0,1.6-0.2,2.8-0.5c0.7-0.2,1.5-0.5,2.1-0.7
		c1.4-0.5,2.4-1,2.9-1.3c1.1-0.6,1.8-1.2,2.9-2c0.4-0.3,1.6-1.2,3-2.5c0.3-0.3,0.5-0.5,3.1-3c2-1.9,2.2-2.2,2.9-2.4
		c0.9-0.2,1.4,0,2.7-0.5c0.8-0.3,1.4-0.7,1.6-0.8c0.6-0.4,0.9-0.7,2.4-2.5c0.8-0.9,1.1-1.4,1.3-1.5c0.5-0.7,1.2-1.5,2-2.6
		c0.7-0.9,1-1.1,1.3-1.1c0.2,0,0.6,0,1.6,1.1c0.4,0.4,0.8,1,1.6,2.2c0.3,0.5,0.9,1.5,1.3,2.8c0.1,0.4,0.3,0.9,0,1.3
		c-0.2,0.3-1,2.4-1.1,3.2c-0.1,0.9-0.3,1.6,0.1,2c0.2,0.2,0.5,0.2,1.2,0.3c0.4,0,0.4,0,1,0.1c0.3,0,0.7-0.1,1.1-0.2
		c0.1,0,0.2-0.7,0.2-0.7s0.3,0.6,0.3,0.6c0.5-0.2,0.9-0.3,1-0.3c0.2,0.1,0.3,0.3,0.4,0.6c0.1,0.4,0,2.3,0,2.5
		c-0.1,0.7-0.5,0.9-1.6,1.9c-1,1-2.6,2.7-3.4,3.4c-1.1,1.1-1.7,1.7-2.1,2.5c-0.1,0.3-0.3,0.7-0.6,2.8c-0.2,1.9-0.2,2.3-0.3,3.5
		c-0.1,1.1-0.4,3.1-1.4,5.1c-0.4,0.8-1,1.5-2,3c-0.9,1.1-1.6,1.9-2.2,2.7c-0.3,0.4-0.7,0.9-2.8,3.1c-2.3,2.5-3.2,3.4-3.4,3.2
		c-0.1,0,0-0.3,0-0.8c0-0.5,0.1-0.9,0.2-1.5c0.2-0.7,0.4-1.2,0.7-1.8c0.4-0.8,0.7-1.3,1-1.7c0.5-0.7,0.9-1.2,1.2-1.7
		c0.2-0.2,0.7-0.9,1.5-1.8c0.6-0.7,0.7-0.7,1-1.1c0.1-0.2,0.6-0.8,1-1.7c0.7-1.4,1.3-3.5,0.8-3.8c-0.2-0.1-0.5,0.1-1,0.5
		c-0.5,0.4-0.6,0.6-1.2,1c-0.4,0.3-0.9,0.6-1,0.5c-0.1-0.1,0.1-0.5,0.4-1.5c0.2-0.7,0.7-2.2,1.1-3c0.4-0.9,0.8-1.5,0.9-1.6
		c0.4-0.6,0.7-1,1.1-1.6c0.2-0.2,0.6-0.9,1.3-1.8c0.8-1,0.7-0.9,1.3-1.6c0.8-1.1,1.6-2.1,1.7-2.4c0.1-0.2,0.1-0.6-0.1-1.4
		c-0.2-0.7-0.6-1.3-0.6-1.3c-0.7-1.2-0.5-2.6-0.3-3.7c0.1-0.4,0.3-1.9,1.3-3.4c0.1-0.2,0.5-0.8,1-1.7c0.2-0.5,0.5-0.9,0.5-1.6
		c0.1-0.5,0-0.8,0-1C438.5,107.2,438.2,106.6,437.9,106.6z"/>
</g>
</svg>
